<?xml version="1.0" encoding="UTF-8"?>
<svg id="Livello_1" data-name="Livello 1" xmlns="http://www.w3.org/2000/svg" viewBox="0 0 1059.173 1037.429">
  <defs>
    <style>
      .cls-1 {
        fill: #fff;
        stroke-width: 0px;
      }
    </style>
  </defs>
  <path class="cls-1" d="m816.826,743.951c-68.211,90.14-176.357,148.383-298.111,148.383-206.344,0-373.619-167.275-373.619-373.619s167.275-373.619,373.619-373.619c121.754,0,229.9,58.243,298.111,148.382h169.28C902.262,119.812,724.481,0,518.714,0,232.236,0,0,232.236,0,518.714s232.236,518.714,518.714,518.714c205.766,0,383.548-119.812,467.391-293.478h-169.28Z"/>
  <rect class="cls-1" x="536.823" y="444.024" width="522.349" height="150.789" rx="15" ry="15"/>
  <rect class="cls-1" x="532.617" y="622.064" width="138.095" height="143.262" rx="15" ry="15"/>
</svg>